<svg width="260" height="260" xmlns="http://www.w3.org/2000/svg" xmlns:xlink="http://www.w3.org/1999/xlink" xml:space="preserve" overflow="hidden"><g><rect x="0" y="0" width="260" height="260" fill="#052FAD"/><path d="M39.5 50.0001C39.5 44.2011 44.2011 39.5 50.0001 39.5L211 39.5C216.799 39.5 221.5 44.2011 221.5 50.0001L221.5 50.0001C221.5 55.7992 216.799 60.5002 211 60.5002L50.0001 60.5C44.2011 60.5 39.5 55.799 39.5 49.9999Z" stroke="#FFFFFF" stroke-width="4.58333" stroke-miterlimit="8" fill="#FFFFFF" fill-rule="evenodd"/><path d="M0 9.99997C-1.33679e-15 4.47714 4.701-1.27313e-15 10.5-2.54626e-15 16.299-5.09252e-15 21 4.47714 21 9.99997 21 15.5228 16.299 19.9999 10.5 19.9999 4.701 19.9999-6.68394e-15 15.5228 0 9.99997Z" stroke="#FFFFFF" stroke-width="4.58333" stroke-miterlimit="8" fill="#FFFFFF" fill-rule="evenodd" transform="matrix(6.12323e-17 1 1 -6.12323e-17 39.5002 79.4997)"/><path d="M0 10.5C-1.33679e-15 4.701 4.701-1.33679e-15 10.5-2.67358e-15 16.299-5.34715e-15 21 4.701 21 10.5 21 16.299 16.299 21 10.5 21 4.701 21-6.68394e-15 16.299 0 10.5Z" stroke="#FFFFFF" stroke-width="4.58333" stroke-miterlimit="8" fill="none" fill-rule="evenodd" transform="matrix(6.12323e-17 1 1 -6.12323e-17 79.4999 79.4999)"/><path d="M0 9.99997C-1.33679e-15 4.47714 4.701-1.27313e-15 10.5-2.54626e-15 16.299-5.09252e-15 21 4.47714 21 9.99997 21 15.5228 16.299 19.9999 10.5 19.9999 4.701 19.9999-6.68394e-15 15.5228 0 9.99997Z" stroke="#FFFFFF" stroke-width="4.58333" stroke-miterlimit="8" fill="none" fill-rule="evenodd" transform="matrix(6.12323e-17 1 1 -6.12323e-17 120.5 79.4997)"/><path d="M0 9.99997C-1.33679e-15 4.47714 4.701-1.27313e-15 10.5-2.54626e-15 16.299-5.09252e-15 21 4.47714 21 9.99997 21 15.5228 16.299 19.9999 10.5 19.9999 4.701 19.9999-6.68394e-15 15.5228 0 9.99997Z" stroke="#FFFFFF" stroke-width="4.58333" stroke-miterlimit="8" fill="#FFFFFF" fill-rule="evenodd" transform="matrix(6.12323e-17 1 1 -6.12323e-17 160.5 79.4997)"/><path d="M0 9.99997C-1.33679e-15 4.47714 4.701-1.27313e-15 10.5-2.54626e-15 16.299-5.09252e-15 21 4.47714 21 9.99997 21 15.5228 16.299 19.9999 10.5 19.9999 4.701 19.9999-6.68394e-15 15.5228 0 9.99997Z" stroke="#FFFFFF" stroke-width="4.58333" stroke-miterlimit="8" fill="#FFFFFF" fill-rule="evenodd" transform="matrix(6.12323e-17 1 1 -6.12323e-17 201.5 79.4997)"/><path d="M0 9.99997C-1.27313e-15 4.47714 4.47714-1.27313e-15 9.99997-2.54626e-15 15.5228-5.09252e-15 19.9999 4.47714 19.9999 9.99997 19.9999 15.5228 15.5228 19.9999 9.99997 19.9999 4.47714 19.9999-6.36565e-15 15.5228 0 9.99997Z" stroke="#FFFFFF" stroke-width="4.58333" stroke-miterlimit="8" fill="none" fill-rule="evenodd" transform="matrix(6.12323e-17 1 1 -6.12323e-17 39.5 120.5)"/><path d="M0 10.5C-1.27313e-15 4.701 4.47714-1.33679e-15 9.99997-2.67358e-15 15.5228-5.34715e-15 19.9999 4.701 19.9999 10.5 19.9999 16.299 15.5228 21 9.99997 21 4.47714 21-6.36565e-15 16.299 0 10.5Z" stroke="#FFFFFF" stroke-width="4.58333" stroke-miterlimit="8" fill="#FFFFFF" fill-rule="evenodd" transform="matrix(6.12323e-17 1 1 -6.12323e-17 79.4997 120.5)"/><path d="M0 9.99997C-1.27313e-15 4.47714 4.47714-1.27313e-15 9.99997-2.54626e-15 15.5228-5.09252e-15 19.9999 4.47714 19.9999 9.99997 19.9999 15.5228 15.5228 19.9999 9.99997 19.9999 4.47714 19.9999-6.36565e-15 15.5228 0 9.99997Z" stroke="#FFFFFF" stroke-width="4.58333" stroke-miterlimit="8" fill="#FFFFFF" fill-rule="evenodd" transform="matrix(6.12323e-17 1 1 -6.12323e-17 120.5 120.5)"/><path d="M0 9.99997C-1.27313e-15 4.47714 4.47714-1.27313e-15 9.99997-2.54626e-15 15.5228-5.09252e-15 19.9999 4.47714 19.9999 9.99997 19.9999 15.5228 15.5228 19.9999 9.99997 19.9999 4.47714 19.9999-6.36565e-15 15.5228 0 9.99997Z" stroke="#FFFFFF" stroke-width="4.58333" stroke-miterlimit="8" fill="none" fill-rule="evenodd" transform="matrix(6.12323e-17 1 1 -6.12323e-17 160.5 120.5)"/><path d="M0 9.99997C-1.27313e-15 4.47714 4.47714-1.27313e-15 9.99997-2.54626e-15 15.5228-5.09252e-15 19.9999 4.47714 19.9999 9.99997 19.9999 15.5228 15.5228 19.9999 9.99997 19.9999 4.47714 19.9999-6.36565e-15 15.5228 0 9.99997Z" stroke="#FFFFFF" stroke-width="4.58333" stroke-miterlimit="8" fill="#FFFFFF" fill-rule="evenodd" transform="matrix(6.12323e-17 1 1 -6.12323e-17 201.5 120.5)"/><path d="M0 9.99997C-1.27313e-15 4.47714 4.47714-1.27313e-15 9.99997-2.54626e-15 15.5228-5.09252e-15 19.9999 4.47714 19.9999 9.99997 19.9999 15.5228 15.5228 19.9999 9.99997 19.9999 4.47714 19.9999-6.36565e-15 15.5228 0 9.99997Z" stroke="#FFFFFF" stroke-width="4.58333" stroke-miterlimit="8" fill="#FFFFFF" fill-rule="evenodd" transform="matrix(6.12323e-17 1 1 -6.12323e-17 39.5 160.5)"/><path d="M0 10.5C-1.27313e-15 4.701 4.47714-1.33679e-15 9.99997-2.67358e-15 15.5228-5.34715e-15 19.9999 4.701 19.9999 10.5 19.9999 16.299 15.5228 21 9.99997 21 4.47714 21-6.36565e-15 16.299 0 10.5Z" stroke="#FFFFFF" stroke-width="4.58333" stroke-miterlimit="8" fill="#FFFFFF" fill-rule="evenodd" transform="matrix(6.12323e-17 1 1 -6.12323e-17 79.4997 160.5)"/><path d="M0 9.99997C-1.27313e-15 4.47714 4.47714-1.27313e-15 9.99997-2.54626e-15 15.5228-5.09252e-15 19.9999 4.47714 19.9999 9.99997 19.9999 15.5228 15.5228 19.9999 9.99997 19.9999 4.47714 19.9999-6.36565e-15 15.5228 0 9.99997Z" stroke="#FFFFFF" stroke-width="4.58333" stroke-miterlimit="8" fill="none" fill-rule="evenodd" transform="matrix(6.12323e-17 1 1 -6.12323e-17 120.5 160.5)"/><path d="M0 9.99997C-1.27313e-15 4.47714 4.47714-1.27313e-15 9.99997-2.54626e-15 15.5228-5.09252e-15 19.9999 4.47714 19.9999 9.99997 19.9999 15.5228 15.5228 19.9999 9.99997 19.9999 4.47714 19.9999-6.36565e-15 15.5228 0 9.99997Z" stroke="#FFFFFF" stroke-width="4.58333" stroke-miterlimit="8" fill="#FFFFFF" fill-rule="evenodd" transform="matrix(6.12323e-17 1 1 -6.12323e-17 160.5 160.5)"/><path d="M0 9.99997C-1.27313e-15 4.47714 4.47714-1.27313e-15 9.99997-2.54626e-15 15.5228-5.09252e-15 19.9999 4.47714 19.9999 9.99997 19.9999 15.5228 15.5228 19.9999 9.99997 19.9999 4.47714 19.9999-6.36565e-15 15.5228 0 9.99997Z" stroke="#FFFFFF" stroke-width="4.58333" stroke-miterlimit="8" fill="none" fill-rule="evenodd" transform="matrix(6.12323e-17 1 1 -6.12323e-17 201.5 160.5)"/><path d="M0 9.99997C-1.27313e-15 4.47714 4.47714-1.27313e-15 9.99997-2.54626e-15 15.5228-5.09252e-15 19.9999 4.47714 19.9999 9.99997 19.9999 15.5228 15.5228 19.9999 9.99997 19.9999 4.47714 19.9999-6.36565e-15 15.5228 0 9.99997Z" stroke="#FFFFFF" stroke-width="4.58333" stroke-miterlimit="8" fill="none" fill-rule="evenodd" transform="matrix(6.12323e-17 1 1 -6.12323e-17 39.5 201.5)"/><path d="M0 10.5C-1.27313e-15 4.701 4.47714-1.33679e-15 9.99997-2.67358e-15 15.5228-5.34715e-15 19.9999 4.701 19.9999 10.5 19.9999 16.299 15.5228 21 9.99997 21 4.47714 21-6.36565e-15 16.299 0 10.5Z" stroke="#FFFFFF" stroke-width="4.58333" stroke-miterlimit="8" fill="none" fill-rule="evenodd" transform="matrix(6.12323e-17 1 1 -6.12323e-17 79.4997 201.5)"/><path d="M0 9.99997C-1.27313e-15 4.47714 4.47714-1.27313e-15 9.99997-2.54626e-15 15.5228-5.09252e-15 19.9999 4.47714 19.9999 9.99997 19.9999 15.5228 15.5228 19.9999 9.99997 19.9999 4.47714 19.9999-6.36565e-15 15.5228 0 9.99997Z" stroke="#FFFFFF" stroke-width="4.58333" stroke-miterlimit="8" fill="#FFFFFF" fill-rule="evenodd" transform="matrix(6.12323e-17 1 1 -6.12323e-17 120.5 201.5)"/><path d="M0 9.99997C-1.27313e-15 4.47714 4.47714-1.27313e-15 9.99997-2.54626e-15 15.5228-5.09252e-15 19.9999 4.47714 19.9999 9.99997 19.9999 15.5228 15.5228 19.9999 9.99997 19.9999 4.47714 19.9999-6.36565e-15 15.5228 0 9.99997Z" stroke="#FFFFFF" stroke-width="4.58333" stroke-miterlimit="8" fill="none" fill-rule="evenodd" transform="matrix(6.12323e-17 1 1 -6.12323e-17 160.5 201.5)"/><path d="M0 9.99997C-1.27313e-15 4.47714 4.47714-1.27313e-15 9.99997-2.54626e-15 15.5228-5.09252e-15 19.9999 4.47714 19.9999 9.99997 19.9999 15.5228 15.5228 19.9999 9.99997 19.9999 4.47714 19.9999-6.36565e-15 15.5228 0 9.99997Z" stroke="#FFFFFF" stroke-width="4.58333" stroke-miterlimit="8" fill="none" fill-rule="evenodd" transform="matrix(6.12323e-17 1 1 -6.12323e-17 201.5 201.5)"/><path d="M56.4999 97.5001 82.6292 123.629" stroke="#FFFFFF" stroke-width="4.58333" stroke-miterlimit="8" fill="none" fill-rule="evenodd"/><path d="M100.5 130.5 120.71 130.501" stroke="#FFFFFF" stroke-width="4.58333" stroke-miterlimit="8" fill="none" fill-rule="evenodd"/><path d="M0 0 26.1293 26.1293" stroke="#FFFFFF" stroke-width="4.58333" stroke-miterlimit="8" fill="none" fill-rule="evenodd" transform="matrix(-1 0 0 1 163.629 97.5001)"/><path d="M0 0 20.21 0.000360892" stroke="#FFFFFF" stroke-width="4.58333" stroke-miterlimit="8" fill="none" fill-rule="evenodd" transform="matrix(-1 0 0 1 200.71 90.4999)"/><path d="M0 0 20.21 0.000360892" stroke="#FFFFFF" stroke-width="4.58333" stroke-miterlimit="8" fill="none" fill-rule="evenodd" transform="matrix(-1 0 0 1 79.7099 170.5)"/><path d="M123.629 203.629 97.5001 177.5" stroke="#FFFFFF" stroke-width="4.58333" stroke-miterlimit="8" fill="none" fill-rule="evenodd"/><path d="M0 0 66.5493 66.5493" stroke="#FFFFFF" stroke-width="4.58333" stroke-miterlimit="8" fill="none" fill-rule="evenodd" transform="matrix(-1 0 0 1 204.049 137.5)"/></g></svg>